PathFileType	4	(X/Y/Z)	Run_300 01
DataRate	CameraRate	NumFrames	NumMarkers	Units	OrigDataRate	OrigDataStartFrame	OrigNumFrames
120	120	4	42	mm	120	247	128
Frame#	Time	LASI			RASI			LPSI			RPSI			RTH1			RTH3			LTH1			LTH2			LTH3			RTB1			RTB2			RTB3			LTB1			LTB2			LTB3			RCAL			RTOE			RMT5			LCAL			LTOE			LMT5			LACR			RACR			CLAV			C7			RUA1			RUA2			RUA3			RLEL			RMEL			LUA1			LUA2			LUA3			LLEL			LMEL			RFAsuperior			RFAradius			RFAulna			LFAsuperior			LFAradius			LFAulna			RTH2		
		X1	Y1	Z1	X2	Y2	Z2	X3	Y3	Z3	X4	Y4	Z4	X5	Y5	Z5	X6	Y6	Z6	X7	Y7	Z7	X8	Y8	Z8	X9	Y9	Z9	X10	Y10	Z10	X11	Y11	Z11	X12	Y12	Z12	X13	Y13	Z13	X14	Y14	Z14	X15	Y15	Z15	X16	Y16	Z16	X17	Y17	Z17	X18	Y18	Z18	X19	Y19	Z19	X20	Y20	Z20	X21	Y21	Z21	X22	Y22	Z22	X23	Y23	Z23	X24	Y24	Z24	X25	Y25	Z25	X26	Y26	Z26	X27	Y27	Z27	X28	Y28	Z28	X29	Y29	Z29	X30	Y30	Z30	X31	Y31	Z31	X32	Y32	Z32	X33	Y33	Z33	X34	Y34	Z34	X35	Y35	Z35	X36	Y36	Z36	X37	Y37	Z37	X38	Y38	Z38	X39	Y39	Z39	X40	Y40	Z40	X41	Y41	Z41	X42	Y42	Z42	

247	  2.058333	1103.617207	977.555299	-433.126504	1113.241398	961.762491	-198.770363	937.923349	1000.637670	-361.175405	942.839078	997.368870	-263.500739	1069.997590	794.158937	-152.003767	1100.850057	563.743680	-197.211240	1076.264822	807.671630	-495.740936	1179.066140	730.437484	-481.458474	1145.336864	591.708358	-455.981063	1020.686130	401.745570	-246.433888	952.493901	454.203177	-195.248617	838.839486	398.737989	-247.191353	1206.641006	365.916067	-379.873315	1136.722023	284.075999	-423.880120	1126.307219	189.598503	-355.046281	690.811335	502.931963	-277.365410	690.364057	291.713416	-278.427530	657.989998	311.899433	-176.402290	970.979219	 91.193322	-343.674621	1177.972309	 70.858300	-307.274831	1169.050666	 42.661814	-416.791585	1073.053439	1435.598286	-523.490254	1112.688891	1439.203980	-158.830992	1163.285957	1388.848957	-324.469948	1053.690373	1478.831739	-347.323955	1077.140855	1362.967453	-108.722751	1058.121800	1276.716711	-119.529721	976.985913	1300.156218	-94.591440	926.817225	1201.934897	-62.664391	903.036971	1201.246005	-130.523729	1017.635635	1374.667753	-571.128383	946.839131	1345.537596	-533.577829	968.745582	1281.505532	-588.282476	862.206400	1220.541195	-603.009405	845.544812	1221.880730	-530.124521	999.956938	1136.788766	-58.309455	1100.203104	993.949112	-107.992537	1040.253765	960.596186	-99.672154	935.444209	1182.514295	-609.593331	1104.791034	1109.284954	-545.185143	1067.500169	1052.929691	-555.105932	1149.761815	658.747652	-179.711551	
248	  2.066667	1101.668873	972.676331	-432.283983	1110.519840	956.361834	-197.975658	935.791633	997.154442	-360.747905	940.072083	993.390511	-263.552899	1071.394734	789.466008	-151.184730	1114.807686	561.407884	-193.631780	1070.928803	802.976173	-495.346757	1169.091564	721.325148	-483.085026	1134.125709	584.124403	-451.092306	1039.865714	401.418991	-244.612487	970.991757	452.851171	-193.403682	858.128088	396.484737	-246.156287	1193.710534	360.101442	-377.887484	1120.187465	279.917985	-421.826821	1105.336880	186.292220	-353.317889	708.260237	499.410387	-277.452127	710.602788	288.236057	-277.299565	678.699769	308.157888	-175.140823	946.384683	 91.824521	-342.575911	1153.124800	 69.807750	-306.971374	1143.806819	 42.347829	-415.322880	1075.182498	1429.100578	-525.493215	1108.749293	1434.140060	-158.932901	1163.147245	1383.636733	-323.608958	1053.722553	1473.879443	-348.695426	1072.452187	1357.639596	-109.643923	1053.135515	1271.920357	-119.771307	971.733147	1294.551452	-97.253403	920.683315	1196.605557	-66.425847	897.683383	1195.655261	-133.663234	1022.967680	1363.643306	-572.804810	950.923263	1333.171945	-538.785635	977.040254	1269.555048	-590.583425	872.647378	1206.049246	-608.381417	853.161204	1206.839519	-535.959733	990.782453	1128.597817	-58.814218	1085.682684	980.841835	-103.209300	1023.875024	950.246853	-95.830443	947.725090	1169.769059	-611.856222	1115.855398	1099.808073	-543.820317	1079.495779	1042.558669	-553.867926	1158.768744	657.912043	-177.536137	
249	  2.075000	1099.829431	968.696661	-431.107169	1107.643252	951.776444	-196.649628	933.855635	994.925727	-360.157371	937.451999	990.729459	-263.421454	1072.511988	785.949439	-150.083776	1128.956489	561.202728	-190.283343	1064.486642	798.958441	-494.522051	1158.755604	714.792736	-483.569819	1122.816394	578.791450	-448.166694	1059.557733	402.634950	-242.899198	989.600074	451.782609	-191.551772	877.840136	393.638987	-245.061149	1179.398481	354.430652	-377.748735	1102.447303	276.400441	-421.306736	1083.447177	183.507030	-352.969564	725.115762	493.694955	-277.283168	732.623013	282.679016	-276.491164	700.447505	301.739922	-174.269508	921.401058	 92.475652	-342.645326	1127.832916	 69.138119	-307.466463	1118.484598	 41.660979	-414.176314	1077.539539	1423.491836	-527.088883	1104.784484	1430.056021	-159.199641	1162.737708	1379.588648	-322.723632	1053.557704	1469.886773	-349.887976	1067.617848	1353.794649	-110.651170	1048.159462	1268.437909	-119.936401	966.438404	1290.267833	-100.492975	914.357239	1192.363670	-70.632016	892.117735	1191.213974	-136.930337	1028.541196	1354.795711	-573.998261	956.179272	1322.106084	-542.783965	986.150554	1259.502360	-592.577851	884.429377	1192.576089	-613.688442	861.494158	1192.667966	-542.050342	982.114503	1122.397023	-60.227550	1070.905380	969.580130	-98.561791	1007.407034	941.744101	-92.339691	961.677974	1158.928734	-613.440639	1127.855690	1092.009648	-541.187813	1092.701867	1033.803108	-552.046716	1167.756862	659.036239	-175.643915	
250	  2.083333	1098.124635	965.720401	-429.911024	1104.878145	948.397314	-195.243695	932.155407	993.544096	-359.578239	935.170158	989.029192	-263.227543	1073.102667	783.716741	-149.077774	1142.930934	563.090952	-187.448584	1057.071754	795.468362	-493.380070	1149.960053	710.532875	-483.150237	1112.684953	575.331015	-448.187472	1079.349992	404.855709	-241.326146	1008.023592	450.954124	-189.781055	897.709475	390.252228	-243.951113	1163.376898	348.887044	-378.774936	1083.832562	273.630673	-421.844137	1061.126130	181.444541	-353.644300	741.287874	485.781708	-276.957312	756.457611	275.196996	-276.007673	723.565741	293.048309	-173.714832	896.398366	 93.277801	-343.329456	1102.487658	 68.738761	-308.353542	1093.216154	 41.019567	-413.902181	1080.236655	1419.048238	-528.211845	1100.982384	1427.009172	-159.468877	1162.118293	1376.592755	-321.796627	1053.173797	1466.895511	-350.846590	1062.680985	1351.184189	-111.698230	1043.106851	1265.970502	-120.615299	961.037096	1287.465893	-104.408064	907.732711	1189.694072	-75.187366	886.878234	1188.145925	-140.683614	1034.004888	1348.347907	-574.832436	962.419163	1312.670042	-545.100179	995.727577	1251.601118	-594.322526	897.367568	1180.710007	-618.804998	870.674027	1179.950687	-548.344154	973.965742	1118.515643	-62.517489	1056.094340	960.730864	-94.190330	991.071367	935.521114	-89.543448	976.595145	1150.249312	-614.374334	1140.512275	1086.703229	-537.363298	1106.957073	1027.467169	-549.427659	1176.598746	662.106097	-173.922011	
